<?xml version="1.0" standalone="no"?>
<!DOCTYPE svg PUBLIC "-//W3C//DTD SVG 20010904//EN"
 "http://www.w3.org/TR/2001/REC-SVG-20010904/DTD/svg10.dtd">
<svg version="1.0" xmlns="http://www.w3.org/2000/svg"
 width="623.000000pt" height="331.000000pt" viewBox="0 0 623.000000 331.000000"
 preserveAspectRatio="xMidYMid meet">

<g transform="translate(0.000000,331.000000) scale(0.100000,-0.100000)"
fill="#000000" stroke="none">
<path d="M0 3265 c0 -10 10 -15 29 -15 23 0 30 -5 33 -22 2 -17 10 -23 28 -23
18 0 26 6 28 23 3 20 9 22 58 22 47 0 54 -3 54 -20 0 -10 7 -23 16 -28 14 -8
12 -19 -19 -98 -24 -60 -42 -90 -54 -93 -27 -5 -34 -23 -19 -46 12 -18 10 -35
-7 -115 -12 -52 -22 -97 -24 -99 -1 -2 -10 2 -18 9 -13 11 -19 11 -32 -3 -14
-13 -14 -19 -3 -32 8 -9 20 -13 32 -9 18 5 18 2 12 -48 -4 -29 -10 -54 -14
-56 -4 -1 -15 -8 -24 -15 -19 -14 -12 -47 10 -47 10 0 14 -14 14 -50 0 -39 -4
-52 -20 -60 -26 -14 -26 -40 1 -47 18 -5 20 -11 15 -45 -4 -22 -13 -53 -21
-69 -8 -15 -15 -38 -15 -51 0 -57 -22 -89 -33 -48 -10 37 -27 21 -27 -25 0
-38 3 -45 18 -43 14 3 16 -4 14 -39 -3 -33 0 -43 11 -43 10 0 19 26 32 93 21
114 65 271 109 397 19 52 57 163 86 245 59 171 168 448 184 470 9 13 52 15
293 13 l281 -3 -47 -76 c-26 -42 -60 -106 -77 -143 -16 -36 -32 -66 -37 -66
-9 0 -2 29 30 133 13 44 22 81 19 84 -2 3 -23 -31 -45 -76 -42 -82 -58 -102
-47 -55 7 25 5 26 -21 20 -108 -25 -244 -52 -247 -48 -2 2 5 34 15 70 33 112
33 110 5 77 -27 -31 -82 -161 -109 -255 -40 -138 -59 -285 -73 -540 -9 -158
-21 -136 -23 40 -1 189 28 421 75 597 17 60 17 63 5 63 -13 0 -66 -143 -81
-215 -6 -33 -20 -89 -31 -125 -25 -85 -39 -216 -39 -365 -1 -94 -3 -116 -12
-101 -8 14 -9 78 -5 210 l5 191 -59 -180 c-65 -194 -120 -445 -139 -630 -6
-60 -15 -143 -20 -183 -6 -40 -10 -91 -10 -113 0 -82 -18 -26 -25 78 l-8 108
-14 -45 c-21 -69 7 -324 49 -433 15 -38 28 -34 29 11 l1 37 12 -48 c10 -45 16
-51 81 -90 121 -73 114 -63 121 -161 l7 -88 -89 68 c-114 86 -193 161 -210
199 l-13 30 -1 -28 c0 -31 89 -145 199 -252 50 -49 61 -65 61 -93 0 -20 -6
-35 -15 -38 -17 -7 -21 -54 -5 -54 14 0 12 -96 -2 -120 -10 -16 -10 -24 0 -40
14 -24 16 -106 2 -115 -15 -9 -12 -45 5 -51 21 -8 21 -102 0 -110 -22 -9 -19
-54 4 -54 14 0 20 -10 25 -46 9 -70 9 -72 -19 -66 -22 4 -25 1 -25 -22 0 -19
5 -26 19 -26 11 0 23 6 27 12 9 14 21 -19 23 -59 1 -21 -4 -23 -44 -23 -34 0
-47 5 -55 20 -14 26 -42 26 -58 0 -17 -28 -82 -28 -107 0 -25 28 -35 25 -35
-10 l0 -30 3116 0 3115 0 -3 21 c-2 12 -11 27 -21 33 -15 9 -22 7 -34 -11 -21
-31 -97 -33 -113 -3 -14 26 -36 26 -52 0 -18 -28 -93 -28 -108 0 -14 26 -36
26 -50 0 -15 -29 -95 -29 -110 0 -14 26 -37 25 -61 -2 -30 -38 -22 -2 20 78
22 41 42 93 46 114 6 35 9 38 24 28 10 -6 26 -8 35 -5 24 9 16 41 -12 45 -12
2 -22 6 -22 8 0 21 26 102 36 112 8 7 11 25 8 40 -7 39 10 61 35 45 29 -18 54
-6 48 24 -3 17 2 28 18 39 13 8 27 14 31 13 23 -4 34 3 34 21 0 12 12 28 29
38 45 27 126 106 150 146 13 21 31 36 42 36 10 0 19 1 19 3 1 1 3 43 6 92 l5
90 -19 -51 c-27 -77 -77 -147 -156 -220 -150 -140 -220 -177 -516 -277 -222
-75 -273 -84 -338 -63 -28 10 -56 24 -62 32 -20 23 -33 17 -80 -42 -92 -116
-390 -346 -464 -359 -17 -3 -870 -4 -1896 -3 l-1865 3 -66 83 c-122 151 -244
366 -304 532 -44 125 -92 410 -68 410 5 0 19 -7 31 -16 32 -22 35 -14 18 37
-24 71 -56 211 -55 244 0 17 15 -22 34 -90 43 -156 67 -210 102 -231 15 -10
38 -27 50 -38 29 -25 29 -19 -1 35 -28 51 -84 232 -122 399 -18 78 -28 162
-33 260 -4 80 -6 147 -5 149 2 2 17 -2 35 -8 39 -14 109 -14 143 -1 17 6 27 6
32 -1 4 -7 36 18 78 59 66 65 201 162 225 162 7 0 7 -9 0 -27 -7 -16 -19 -61
-28 -101 l-17 -74 -107 -41 c-59 -23 -107 -45 -107 -49 0 -17 58 -6 163 31
367 130 720 166 1092 111 144 -21 170 -23 160 -12 -5 6 -26 14 -45 19 -34 9
-35 11 -43 69 -5 32 -17 84 -27 114 -11 30 -18 56 -16 58 2 2 21 -7 43 -21 73
-46 91 -50 48 -12 -52 46 -23 35 84 -32 49 -31 87 -49 89 -43 5 13 -49 84 -88
116 -154 131 -294 201 -457 229 -138 24 -239 20 -361 -15 -190 -55 -360 -161
-569 -356 -123 -114 -171 -139 -268 -139 l-60 0 3 100 c4 169 36 440 67 571
13 56 316 158 562 190 53 7 53 7 67 53 55 182 188 481 214 481 17 0 19 9 -43
-165 -44 -125 -85 -271 -85 -307 0 -13 8 -18 25 -18 21 0 29 9 45 48 11 26 27
61 35 77 l15 30 -5 -35 c-3 -19 -8 -52 -11 -74 -7 -38 -7 -38 22 -33 65 13
139 18 349 26 134 4 228 12 242 19 12 7 27 29 33 49 19 58 97 211 143 278 70
104 71 104 101 105 26 0 28 -2 23 -27 -4 -16 -13 -59 -21 -98 -18 -81 -42
-273 -35 -279 2 -3 72 -8 156 -12 l151 -7 7 34 c13 62 78 264 82 253 2 -6 0
-37 -5 -68 -5 -31 -10 -92 -11 -136 -2 -83 -4 -80 41 -84 8 -1 17 25 24 69
l11 70 2 -65 1 -65 208 3 c115 3 254 -1 310 -7 55 -6 108 -8 118 -4 15 5 16
27 12 215 l-3 209 60 -3 60 -3 17 -155 c9 -85 17 -179 17 -207 1 -42 4 -53 17
-53 15 0 16 14 10 136 -4 74 -10 143 -13 152 -4 11 -3 14 4 7 6 -5 18 -41 27
-80 9 -38 26 -104 37 -147 l21 -76 41 -5 c23 -2 88 -10 145 -17 56 -7 105 -10
109 -6 10 9 -35 339 -58 436 -3 9 5 16 18 18 19 3 25 -6 47 -77 23 -78 59
-255 71 -353 5 -42 9 -48 29 -48 23 0 24 1 20 113 l-3 112 19 -90 c11 -49 19
-100 20 -111 0 -22 36 -34 105 -34 17 0 55 -7 85 -15 56 -15 255 -55 278 -55
8 0 11 10 8 28 -2 15 -7 65 -11 112 -3 47 -8 108 -11 135 -4 34 -3 47 4 40 11
-10 33 -118 52 -245 6 -41 12 -75 13 -76 11 -10 78 -20 83 -13 3 5 2 39 -1 74
-4 36 -5 65 -2 65 3 0 11 -25 17 -55 12 -60 30 -83 30 -38 0 41 -31 156 -94
349 -59 181 -64 200 -43 169 26 -37 80 -180 147 -385 l67 -205 99 -21 c158
-33 272 -74 326 -117 30 -23 51 -241 52 -537 1 -291 11 -266 -94 -228 -47 18
-79 44 -215 177 -88 87 -182 175 -210 198 -115 92 -260 175 -360 206 -28 9
-69 23 -93 32 -62 22 -229 30 -351 16 -152 -18 -219 -42 -292 -104 -33 -29
-82 -67 -107 -85 -67 -47 -126 -106 -112 -110 6 -2 17 1 23 7 6 6 19 11 28 11
10 0 59 16 109 35 50 19 98 35 106 35 8 0 -1 -21 -26 -57 -22 -31 -48 -80 -57
-110 -16 -51 -18 -53 -53 -53 -39 0 -91 -28 -57 -31 9 -1 32 -3 50 -6 17 -2
116 -3 218 -3 425 3 772 -68 1137 -231 71 -32 72 -33 72 -20 0 12 -90 71 -178
116 -58 29 -72 41 -66 54 15 34 15 68 0 116 -8 27 -14 51 -11 53 8 8 54 -25
125 -92 42 -39 94 -87 116 -106 22 -19 55 -54 74 -77 33 -42 65 -58 54 -28
-11 28 6 32 58 14 29 -10 65 -18 81 -19 33 0 34 -8 12 -186 -25 -199 -50 -324
-88 -430 -20 -54 -39 -112 -42 -129 l-7 -30 21 25 c12 14 56 93 98 177 43 84
79 151 80 149 2 -2 -11 -56 -28 -120 -30 -109 -32 -150 -6 -116 12 15 255 163
291 176 16 6 17 3 12 -23 -5 -23 -1 -37 24 -68 50 -63 39 -120 -39 -203 -36
-39 -37 -43 -11 -67 28 -25 94 -13 161 30 29 19 61 35 70 35 34 0 77 48 88 98
10 48 7 70 -5 36 -20 -56 -35 -86 -40 -81 -3 3 -1 14 5 25 23 43 15 54 -31 47
-24 -4 -64 -13 -90 -20 -27 -8 -48 -13 -49 -12 0 1 -1 23 -2 48 -2 33 -10 55
-30 79 -23 27 -26 38 -21 69 4 20 12 43 19 51 7 8 21 45 31 83 10 37 23 67 28
67 5 0 6 -25 3 -55 l-6 -56 40 32 c51 40 59 57 59 122 0 55 0 55 48 83 26 15
83 54 128 85 45 32 92 61 105 64 23 6 25 2 36 -52 13 -70 45 -146 50 -122 2 9
-5 51 -15 92 -11 42 -17 78 -14 81 3 4 16 6 29 6 13 0 23 5 23 10 0 6 -26 10
-58 10 -56 0 -63 -3 -183 -81 -68 -45 -130 -84 -136 -86 -10 -4 -13 20 -13 98
0 57 4 109 8 115 11 17 112 79 160 97 84 33 152 15 206 -55 62 -82 127 -262
145 -403 l8 -70 2 99 c1 82 -3 110 -24 168 -29 79 -30 89 -12 82 8 -3 20 2 27
11 10 12 10 18 0 30 -17 20 -37 19 -49 -2 -11 -21 -16 -12 -25 51 -3 22 -9 42
-14 45 -32 21 -35 84 -5 108 11 9 14 22 9 47 -4 19 0 102 9 183 8 81 16 194
18 250 l2 101 26 -5 c17 -3 28 0 32 9 9 25 -9 41 -37 34 -26 -6 -26 -6 -26 48
0 30 -5 100 -12 157 -6 57 -11 128 -10 157 0 28 -3 52 -8 52 -10 0 -16 17 -26
73 -6 33 -4 37 15 37 16 0 21 6 21 25 0 21 -5 25 -29 25 -26 0 -30 4 -45 63
-10 34 -20 70 -22 80 -4 13 1 17 20 17 19 0 26 -5 26 -20 0 -11 7 -23 15 -26
20 -8 45 13 38 32 -4 11 5 14 41 14 34 0 46 4 46 15 0 13 -353 15 -3115 15
-2762 0 -3115 -2 -3115 -15z m290 -25 c0 -5 -2 -10 -4 -10 -3 0 -8 5 -11 10
-3 6 -1 10 4 10 6 0 11 -4 11 -10z m815 -7 c-4 -10 -14 -39 -22 -64 -8 -26
-35 -87 -59 -135 l-44 -89 4 50 c3 28 21 96 41 153 34 92 40 102 62 102 20 0
24 -4 18 -17z m625 7 c0 -5 -7 -28 -16 -50 -16 -41 -34 -53 -34 -24 0 13 -7
15 -42 9 -56 -10 -157 -43 -185 -61 -29 -18 -33 -18 -34 4 0 13 -3 12 -11 -5
-11 -22 -28 -31 -28 -15 0 14 31 116 41 135 9 15 27 17 159 17 91 0 150 -4
150 -10z m100 3 c-2 -23 -89 -152 -103 -153 -5 0 -7 3 -5 8 2 4 16 40 32 80
25 61 33 72 53 72 12 0 23 -3 23 -7z m40 -2 c0 -5 -7 -14 -15 -21 -16 -14 -18
-10 -9 14 6 17 24 22 24 7z m417 -20 c-3 -16 -13 -44 -21 -62 l-14 -34 -1 31
c-2 52 10 94 27 94 11 0 13 -7 9 -29z m2717 12 c23 -82 63 -389 52 -401 -4 -3
-24 59 -56 173 -11 41 -50 224 -50 238 0 16 49 6 54 -10z m46 -3 c46 -86 133
-382 149 -508 14 -110 24 -248 18 -242 -3 3 -13 60 -22 127 -20 159 -53 288
-121 472 -30 82 -54 154 -54 160 0 18 18 13 30 -9z m333 -57 c100 -220 202
-676 248 -1102 13 -121 5 -249 -28 -434 -18 -103 -35 -125 -28 -35 3 35 7 83
9 108 10 111 -51 636 -71 617 -2 -3 0 -54 6 -113 6 -59 10 -171 10 -248 -2
-131 -2 -136 -10 -66 -22 209 -32 287 -55 420 -31 178 -96 469 -128 570 l-24
75 -1 -162 c-1 -90 -5 -163 -9 -163 -5 0 -14 42 -21 93 -10 72 -77 354 -117
495 -6 22 -5 22 88 22 l95 0 36 -77z m631 5 c29 -138 66 -380 66 -437 0 -32
-4 -71 -10 -87 -5 -16 -16 -74 -24 -129 -8 -55 -22 -118 -31 -140 -8 -22 -13
-29 -11 -15 28 146 38 225 43 340 3 74 3 133 0 130 -3 -3 -10 -57 -17 -120
-16 -165 -11 -156 -78 -120 -44 24 -59 28 -65 18 -4 -7 -28 -48 -53 -91 -25
-44 -48 -77 -50 -74 -3 2 23 68 56 146 63 150 80 216 29 119 -16 -32 -31 -58
-33 -58 -2 0 11 40 29 89 63 168 76 291 16 146 -49 -118 -87 -190 -148 -282
-51 -77 -73 -99 -73 -72 0 6 26 53 59 104 63 101 138 261 147 316 5 31 4 32
-8 13 -22 -37 -103 -133 -111 -134 -4 0 8 24 27 54 51 79 75 130 107 223 31
89 38 134 16 99 -94 -148 -264 -326 -311 -326 -10 0 75 82 112 107 32 23 27
36 -8 18 -39 -20 -38 -11 6 37 35 39 70 105 61 115 -3 2 -15 -12 -27 -32 -25
-41 -36 -41 -20 0 9 23 2 19 -34 -21 -24 -28 -67 -62 -95 -78 l-52 -28 -10 31
c-6 17 -30 68 -52 114 -23 45 -43 85 -45 90 -2 4 127 7 286 7 l290 0 16 -72z
m-788 -313 c53 -201 85 -501 74 -705 -5 -87 -6 -79 -12 90 -9 202 -32 379 -78
599 -17 77 -30 144 -29 148 1 16 22 -46 45 -132z m-1539 -861 c8 -23 -14 -34
-69 -34 -52 0 -71 16 -43 37 27 19 104 17 112 -3z m-2597 -55 c0 -5 -25 -22
-55 -35 -45 -21 -59 -23 -70 -14 -21 18 -19 27 13 44 31 17 112 21 112 5z
m4640 -969 c-6 -11 -13 -20 -16 -20 -2 0 0 9 6 20 6 11 13 20 16 20 2 0 0 -9
-6 -20z m-5405 -605 c9 -82 22 -175 30 -205 l14 -55 -4 50 c-3 28 -7 102 -10
165 l-4 115 13 -70 c8 -39 23 -86 34 -105 29 -49 73 -220 58 -226 -20 -7 -106
2 -116 12 -22 22 -42 213 -45 434 -3 183 -2 207 6 130 5 -52 16 -162 24 -245z
m5369 -38 c-29 -88 -119 -277 -138 -289 -15 -10 -94 -10 -99 0 -2 4 25 56 60
117 35 61 63 101 64 90 0 -16 4 -13 15 10 l15 30 -6 -35 c-3 -22 -2 -31 4 -25
12 12 86 161 97 195 6 20 9 21 12 7 2 -9 -9 -54 -24 -100z m-194 -74 c-14 -45
-85 -181 -107 -205 -17 -19 -43 -24 -43 -8 0 5 24 44 53 87 29 43 63 99 77
125 29 55 37 55 20 1z m-646 -207 c-6 -16 -24 -23 -24 -8 0 10 22 33 27 28 2
-2 1 -11 -3 -20z"/>
<path d="M0 3150 c0 -32 8 -38 28 -18 17 17 15 26 -8 38 -18 10 -20 8 -20 -20z"/>
<path d="M149 3164 c-17 -21 -3 -46 23 -42 31 4 37 43 9 51 -11 3 -25 -1 -32
-9z"/>
<path d="M6183 3173 c-18 -7 -16 -42 3 -50 8 -3 23 1 31 10 13 13 14 19 3 31
-13 17 -17 18 -37 9z"/>
<path d="M64 3075 c-4 -9 -2 -21 4 -27 16 -16 47 -5 47 17 0 26 -42 34 -51 10z"/>
<path d="M0 2985 c0 -20 4 -26 18 -23 9 2 17 12 17 23 0 11 -8 21 -17 23 -14
3 -18 -3 -18 -23z"/>
<path d="M6174 2995 c-8 -20 4 -35 26 -35 23 0 32 13 24 34 -8 20 -43 21 -50
1z"/>
<path d="M66 2914 c-4 -10 -2 -22 3 -27 15 -15 46 -3 46 18 0 26 -40 33 -49 9z"/>
<path d="M0 2820 c0 -34 14 -39 29 -12 7 13 6 23 -1 30 -19 19 -28 14 -28 -18z"/>
<path d="M6177 2843 c-13 -12 -7 -41 10 -47 9 -4 23 0 31 8 13 12 13 18 2 30
-13 17 -32 21 -43 9z"/>
<path d="M0 2660 c0 -32 23 -42 34 -14 8 22 8 22 -14 34 -18 10 -20 8 -20 -20z"/>
<path d="M6180 2675 c-25 -30 10 -61 38 -33 17 17 15 26 -7 37 -14 8 -22 7
-31 -4z"/>
<path d="M0 2495 c0 -28 24 -34 34 -9 8 20 -1 34 -20 34 -8 0 -14 -10 -14 -25z"/>
<path d="M3824 2479 c-54 -9 -109 -27 -103 -33 2 -3 29 2 59 10 30 8 69 14 88
14 19 0 31 4 27 10 -3 6 -9 9 -13 9 -4 -1 -30 -5 -58 -10z"/>
<path d="M3760 2435 c-89 -24 -186 -62 -179 -70 3 -2 34 7 71 20 36 13 107 34
157 45 50 12 91 24 91 26 0 10 -61 1 -140 -21z"/>
<path d="M1715 2411 c6 -5 46 -19 90 -31 79 -22 238 -84 263 -103 7 -5 15 -7
18 -4 18 18 -244 130 -331 141 -30 4 -45 3 -40 -3z"/>
<path d="M0 2335 c0 -26 24 -35 32 -12 7 18 -2 37 -18 37 -8 0 -14 -10 -14
-25z"/>
<path d="M3545 2350 c-3 -6 1 -7 9 -4 18 7 21 14 7 14 -6 0 -13 -4 -16 -10z"/>
<path d="M6173 2344 c-9 -25 26 -49 44 -31 8 7 11 21 7 30 -8 22 -43 22 -51 1z"/>
<path d="M6177 2193 c-13 -12 -7 -41 10 -47 9 -4 23 0 31 8 13 12 13 18 2 30
-13 17 -32 21 -43 9z"/>
<path d="M6172 2008 c4 -28 42 -37 52 -13 9 24 -1 35 -30 35 -21 0 -25 -4 -22
-22z"/>
<path d="M2960 2010 c0 -5 5 -10 10 -10 6 0 10 5 10 10 0 6 -4 10 -10 10 -5 0
-10 -4 -10 -10z"/>
<path d="M0 1898 c0 -56 2 -99 4 -97 10 11 44 171 40 184 -4 8 -15 15 -25 15
-17 0 -19 -9 -19 -102z"/>
<path d="M2560 1985 c0 -8 7 -15 15 -15 8 0 15 7 15 15 0 8 -7 15 -15 15 -8 0
-15 -7 -15 -15z"/>
<path d="M2641 1870 c-54 -13 -65 -31 -69 -116 -5 -94 10 -93 28 2 l13 66 53
25 c30 13 54 26 54 29 0 6 -40 3 -79 -6z"/>
<path d="M6174 1855 c-8 -20 4 -35 26 -35 23 0 32 13 24 34 -8 20 -43 21 -50
1z"/>
<path d="M1701 1852 c-15 -11 2 -27 18 -18 5 3 53 2 107 -4 54 -5 100 -7 102
-5 15 15 -205 41 -227 27z"/>
<path d="M3615 1845 l-40 -14 75 0 c41 0 84 -1 95 -3 13 -2 20 3 20 12 0 20
-96 23 -150 5z"/>
<path d="M2405 1840 c-3 -5 1 -10 10 -10 9 0 13 5 10 10 -3 6 -8 10 -10 10 -2
0 -7 -4 -10 -10z"/>
<path d="M2980 1830 c0 -5 4 -10 9 -10 6 0 13 5 16 10 3 6 -1 10 -9 10 -9 0
-16 -4 -16 -10z"/>
<path d="M1895 1750 c-4 -6 -3 -16 3 -22 6 -6 12 -6 17 2 4 6 3 16 -3 22 -6 6
-12 6 -17 -2z"/>
<path d="M1057 1676 c-22 -13 -224 -247 -252 -291 -19 -30 -19 -30 0 -15 11 8
31 28 45 45 124 147 207 242 220 252 20 16 10 23 -13 9z"/>
<path d="M1646 1633 c-33 -53 -42 -73 -32 -73 6 0 56 80 66 105 15 40 4 29
-34 -32z"/>
<path d="M1271 1595 c-57 -72 -116 -164 -109 -170 5 -5 98 118 122 161 9 16
23 39 32 52 36 49 3 18 -45 -43z"/>
<path d="M4225 1615 c9 -106 18 -166 23 -160 10 9 2 109 -13 160 l-15 50 5
-50z"/>
<path d="M4359 1655 c-8 -14 11 -187 22 -205 7 -10 8 11 4 60 -9 100 -19 157
-26 145z"/>
<path d="M1147 1593 c-105 -111 -192 -227 -126 -167 25 22 182 214 175 214 -2
0 -24 -21 -49 -47z"/>
<path d="M4486 1600 c10 -88 46 -233 51 -209 4 16 -28 168 -47 224 -8 26 -9
25 -4 -15z"/>
<path d="M1448 1547 c-76 -113 -90 -137 -80 -137 9 0 145 210 139 216 -2 2
-28 -33 -59 -79z"/>
<path d="M4091 1614 c0 -11 3 -14 6 -6 3 7 2 16 -1 19 -3 4 -6 -2 -5 -13z"/>
<path d="M719 1526 c-99 -86 -194 -185 -186 -193 7 -6 277 247 277 259 0 14
-6 9 -91 -66z"/>
<path d="M4616 1575 c32 -145 72 -263 58 -170 -10 65 -36 159 -51 180 -13 19
-14 18 -7 -10z"/>
<path d="M4082 1570 c0 -14 2 -19 5 -12 2 6 2 18 0 25 -3 6 -5 1 -5 -13z"/>
<path d="M4799 1572 c5 -10 21 -62 35 -116 28 -107 36 -125 36 -80 0 56 -53
214 -72 214 -5 0 -4 -8 1 -18z"/>
<path d="M4071 1524 c0 -11 3 -14 6 -6 3 7 2 16 -1 19 -3 4 -6 -2 -5 -13z"/>
<path d="M552 1474 c-61 -60 -50 -62 15 -3 42 38 59 59 48 59 -4 0 -32 -25
-63 -56z"/>
<path d="M4891 1515 c-1 -5 17 -55 39 -110 28 -70 39 -88 34 -60 -6 38 -71
191 -73 170z"/>
<path d="M5736 1462 c-2 -4 12 -6 33 -4 36 4 40 1 99 -74 70 -88 74 -108 46
-216 -17 -67 -13 -98 10 -79 23 19 39 107 32 173 -5 55 -11 65 -68 133 -60 71
-65 74 -105 75 -23 0 -44 -3 -47 -8z"/>
<path d="M6088 1410 c-3 -8 -11 -51 -17 -95 -6 -44 -14 -91 -18 -105 -4 -18
-3 -22 5 -15 18 17 43 132 40 182 -2 27 -6 41 -10 33z"/>
<path d="M2018 1070 c-42 -45 -46 -60 -20 -82 20 -17 100 -48 124 -48 9 0 40
-11 70 -25 56 -26 107 -32 139 -15 11 6 58 19 106 30 47 10 91 24 97 30 8 9 5
10 -14 5 -13 -4 -76 -16 -140 -25 l-115 -18 -65 28 c-36 15 -75 31 -87 34 -12
4 -32 20 -43 37 -20 27 -20 31 -6 51 37 53 5 51 -46 -2z"/>
<path d="M3310 1070 c0 -5 5 -10 10 -10 6 0 10 -16 10 -35 0 -63 -36 -85 -170
-100 -24 -3 -70 -18 -103 -32 -67 -30 -79 -29 -237 31 -52 20 -117 39 -145 41
l-50 5 70 -23 c39 -13 109 -40 157 -61 95 -40 172 -47 231 -23 18 8 61 17 97
21 87 9 169 36 181 58 5 10 16 18 25 18 25 0 26 25 3 64 -27 46 -79 76 -79 46z"/>
<path d="M0 1030 c0 -19 5 -30 14 -30 19 0 29 30 15 46 -18 22 -29 16 -29 -16z"/>
<path d="M5817 1028 c-9 -31 -2 -33 11 -3 6 14 8 25 3 25 -5 0 -11 -10 -14
-22z"/>
<path d="M64 955 c-8 -19 3 -35 26 -35 19 0 34 25 24 41 -8 14 -44 10 -50 -6z"/>
<path d="M0 865 c0 -28 24 -34 34 -9 8 20 -1 34 -20 34 -8 0 -14 -10 -14 -25z"/>
<path d="M144 875 c-4 -9 -2 -21 4 -27 16 -16 47 -5 47 17 0 26 -42 34 -51 10z"/>
<path d="M64 795 c-4 -9 -2 -21 4 -27 16 -16 47 -5 47 17 0 26 -42 34 -51 10z"/>
<path d="M0 705 c0 -28 24 -34 34 -9 8 20 -1 34 -20 34 -8 0 -14 -10 -14 -25z"/>
<path d="M146 713 c-10 -26 23 -48 42 -29 8 8 12 22 9 30 -8 21 -43 20 -51 -1z"/>
<path d="M6174 715 c-8 -19 3 -35 26 -35 19 0 30 17 23 38 -6 17 -42 15 -49
-3z"/>
<path d="M63 634 c-3 -8 2 -23 11 -32 15 -15 17 -15 32 0 21 21 11 48 -16 48
-11 0 -23 -7 -27 -16z"/>
<path d="M6097 644 c-12 -12 -8 -42 6 -47 21 -8 39 8 35 29 -3 19 -29 30 -41
18z"/>
<path d="M2462 608 c12 -38 127 -60 217 -42 55 11 33 24 -42 24 -41 0 -96 7
-123 15 -59 18 -57 18 -52 3z"/>
<path d="M0 540 c0 -32 11 -38 29 -16 14 16 4 46 -15 46 -9 0 -14 -11 -14 -30z"/>
<path d="M150 554 c-11 -12 -10 -18 3 -32 16 -15 18 -15 33 0 19 18 12 48 -9
48 -8 0 -20 -7 -27 -16z"/>
<path d="M6014 556 c-9 -24 4 -48 23 -44 12 2 18 12 18 28 0 29 -32 41 -41 16z"/>
<path d="M6177 563 c-13 -12 -7 -41 10 -47 21 -9 46 16 37 37 -6 17 -35 23
-47 10z"/>
<path d="M70 474 c-11 -12 -10 -18 3 -32 16 -15 18 -15 34 0 13 14 14 20 3 32
-7 9 -16 16 -20 16 -4 0 -13 -7 -20 -16z"/>
<path d="M5934 476 c-9 -24 4 -48 23 -44 12 2 18 12 18 28 0 29 -32 41 -41 16z"/>
<path d="M6094 476 c-9 -24 4 -48 23 -44 12 2 18 12 18 28 0 29 -32 41 -41 16z"/>
<path d="M0 380 c0 -32 23 -42 34 -14 8 22 8 22 -14 34 -18 10 -20 8 -20 -20z"/>
<path d="M151 392 c-12 -23 1 -45 25 -40 23 4 31 37 12 49 -19 13 -26 11 -37
-9z"/>
<path d="M5856 394 c-20 -20 -9 -46 18 -42 25 4 34 43 12 51 -9 4 -22 -1 -30
-9z"/>
<path d="M6022 401 c-20 -12 -10 -46 13 -46 14 0 20 7 20 24 0 27 -13 35 -33
22z"/>
<path d="M6182 401 c-20 -12 -10 -46 14 -49 25 -4 40 24 23 44 -13 16 -19 17
-37 5z"/>
<path d="M64 305 c-4 -9 -2 -21 4 -27 16 -16 47 -5 47 17 0 26 -42 34 -51 10z"/>
<path d="M5930 294 c0 -21 4 -25 23 -22 14 2 23 11 25 26 3 18 -1 22 -22 22
-21 0 -26 -5 -26 -26z"/>
<path d="M6092 298 c2 -15 11 -24 26 -26 18 -3 22 1 22 22 0 21 -5 26 -26 26
-21 0 -25 -4 -22 -22z"/>
<path d="M0 215 c0 -15 6 -25 14 -25 19 0 28 14 20 34 -10 25 -34 19 -34 -9z"/>
<path d="M146 224 c-4 -10 -2 -22 3 -27 15 -15 46 -3 46 18 0 26 -40 33 -49 9z"/>
<path d="M5847 227 c-8 -21 8 -39 29 -35 27 5 25 42 -2 46 -12 2 -24 -3 -27
-11z"/>
<path d="M6010 215 c0 -20 5 -25 25 -25 20 0 25 5 25 25 0 20 -5 25 -25 25
-20 0 -25 -5 -25 -25z"/>
<path d="M6172 218 c4 -31 53 -34 53 -3 0 15 -8 21 -28 23 -25 3 -28 0 -25
-20z"/>
<path d="M64 145 c-4 -9 -2 -21 4 -27 16 -16 47 -5 47 17 0 26 -42 34 -51 10z"/>
<path d="M5764 145 c-4 -9 -2 -21 4 -27 16 -16 47 -5 47 17 0 26 -42 34 -51
10z"/>
<path d="M5930 136 c0 -21 5 -26 26 -26 21 0 25 4 22 23 -2 14 -11 23 -25 25
-19 3 -23 -1 -23 -22z"/>
<path d="M6094 145 c-8 -20 4 -35 27 -35 14 0 19 7 19 25 0 18 -5 25 -20 25
-11 0 -23 -7 -26 -15z"/>
</g>
</svg>
