<?xml version="1.0" standalone="no"?>
<!DOCTYPE svg PUBLIC "-//W3C//DTD SVG 1.0//EN" "http://www.w3.org/TR/2001/REC-SVG-20010904/DTD/svg10.dtd">
<svg xmlns="http://www.w3.org/2000/svg" xmlns:xlink="http://www.w3.org/1999/xlink" id="body_1" width="85" height="85">

<g transform="matrix(0.25 0 0 0.25 0 0)">
	<g transform="matrix(0.1 0 -0 -0.1 0 340)">
        <path d="M1563 3384C 1556 3366 1557 3365 1619 3220C 1741 2939 1812 2826 1956 2682C 2013 2625 2060 2576 2060 2573C 2060 2570 2053 2571 2043 2574C 2034 2578 1971 2592 1903 2605C 1695 2647 1414 2636 1205 2580C 1135 2561 948 2476 913 2448C 899 2437 873 2440 791 2463C 747 2476 728 2489 686 2537C 626 2605 446 2780 397 2818C 378 2833 333 2869 296 2899C 205 2972 17 3110 8 3110C 3 3110 0 2951 0 2756L0 2756L0 2402L53 2373C 81 2357 157 2320 220 2291C 377 2219 391 2213 423 2205C 492 2187 489 2117 412 1969C 307 1763 260 1581 260 1374C 260 1180 291 1057 377 908C 421 833 419 820 365 791C 264 737 214 669 240 620C 259 585 287 586 368 626C 425 654 456 664 487 663C 541 661 620 625 696 568C 728 543 774 510 798 494L798 494L842 465L845 390C 850 301 869 79 876 32L876 32L881 0L1059 0L1238 0L1259 51C 1272 79 1291 140 1303 186C 1328 284 1317 280 1484 255C 1622 235 1780 220 1851 220L1851 220L1910 220L1910 123C 1910 69 1914 19 1918 12C 1925 3 1972 0 2121 2L2121 2L2315 5L2373 141L2431 277L2541 309C 2676 348 2928 470 3025 542C 3064 571 3133 633 3179 680C 3306 809 3350 917 3350 1104C 3350 1192 3311 1402 3278 1495C 3213 1676 3073 1884 2883 2082C 2826 2140 2780 2195 2780 2203C 2780 2224 2708 2331 2669 2369C 2650 2387 2618 2413 2598 2427C 2570 2446 2543 2484 2493 2574C 2322 2886 2001 3281 1840 3379C 1810 3397 1790 3400 1687 3400C 1587 3400 1568 3398 1563 3384zM2124 3045C 2241 2899 2255 2880 2246 2880C 2243 2880 2226 2900 2208 2924C 2118 3045 2020 3160 1910 3276L1910 3276L1825 3365L1919 3275C 1970 3226 2062 3122 2124 3045zM265 2880C 275 2869 281 2860 278 2860C 275 2860 265 2869 255 2880C 245 2891 239 2900 242 2900C 245 2900 255 2891 265 2880zM2310 2808C 2310 2803 2330 2773 2353 2742C 2393 2690 2435 2622 2413 2645C 2394 2665 2270 2839 2270 2846C 2270 2850 2279 2845 2290 2835C 2301 2825 2310 2813 2310 2808zM615 2576C 661 2526 696 2483 693 2480C 690 2477 685 2481 683 2488C 680 2494 673 2497 668 2494C 662 2490 660 2492 663 2497C 667 2503 622 2556 562 2616C 503 2675 472 2711 493 2695C 514 2679 569 2626 615 2576zM2645 2350C 2678 2317 2702 2290 2699 2290C 2697 2290 2668 2317 2635 2350C 2602 2383 2578 2410 2581 2410C 2583 2410 2612 2383 2645 2350zM870 2380C 870 2375 865 2370 859 2370C 854 2370 852 2375 855 2380C 858 2386 863 2390 866 2390C 868 2390 870 2386 870 2380zM1682 1740C 1741 1734 1801 1725 1815 1720C 1851 1706 1863 1670 1841 1647C 1824 1629 1808 1629 1529 1639C 1367 1645 1163 1648 1075 1647L1075 1647L915 1645L912 1672C 908 1707 927 1716 1032 1734C 1133 1751 1528 1754 1682 1740zM3062 1728C 3139 1717 3140 1716 3146 1683C 3150 1664 3149 1645 3144 1641C 3139 1637 3070 1637 2990 1641C 2910 1645 2794 1648 2731 1649C 2640 1650 2613 1653 2598 1667C 2573 1689 2575 1718 2603 1725C 2702 1750 2911 1751 3062 1728zM3235 1510C 3248 1476 3257 1443 3254 1439C 3251 1434 3253 1430 3258 1430C 3262 1430 3274 1379 3285 1318C 3295 1256 3304 1197 3306 1188C 3308 1178 3305 1170 3299 1170C 3294 1170 3290 1160 3291 1148C 3291 1126 3292 1126 3300 1145C 3308 1164 3309 1164 3309 1143C 3310 1130 3304 1120 3298 1119C 3288 1119 3288 1117 3297 1113C 3317 1105 3295 880 3274 880C 3271 880 3271 906 3275 938C 3283 1010 3284 1225 3276 1265C 3273 1282 3266 1318 3261 1345C 3256 1373 3240 1434 3226 1483C 3189 1608 3193 1618 3235 1510zM790 1059C 888 1030 925 1006 1043 894C 1112 828 1153 798 1178 791C 1198 786 1301 773 1405 763C 1703 735 2431 741 2725 775C 2791 783 2906 794 2980 800C 3054 806 3146 818 3183 826C 3221 835 3254 839 3257 837C 3278 815 3203 795 3050 780C 2998 775 2919 765 2875 759C 2706 735 1702 712 1544 728C 1484 734 1370 745 1290 752L1290 752L1146 764L1035 869C 921 979 880 1004 766 1036C 727 1047 695 1064 671 1087L671 1087L635 1122L675 1101C 697 1090 749 1071 790 1059zM1211 23C 1199 3 1197 9 1206 35C 1210 44 1215 49 1217 46C 1220 44 1217 33 1211 23z" stroke="none" fill="#000000" fill-rule="nonzero" />
        <path d="M59 537C 50 530 38 515 31 502C 14 470 40 440 85 440C 124 440 140 456 140 495C 140 512 135 531 128 538C 113 553 80 553 59 537z" stroke="none" fill="#000000" fill-rule="nonzero" />
	</g>
</g>
</svg>